<svg width="50" height="50" viewBox="0 0 50 50" fill="none" xmlns="http://www.w3.org/2000/svg">
<rect width="50" height="50" rx="15" fill="#3D3B94"/>
<path fill-rule="evenodd" clip-rule="evenodd" d="M30.435 17.3897C28.9958 16.5112 27.306 16.0045 25.5 16.0045C23.5591 16.0045 21.7526 16.59 20.247 17.5931L22.1394 23.4169L30.435 17.3897ZM31.4002 18.0645L26.4482 21.6624L34.7457 27.6909C34.9117 26.9887 35 26.2568 35 25.5046C35 22.4939 33.592 19.8062 31.4002 18.0645ZM16 25.5045C16 22.6297 17.2838 20.0492 19.308 18.3057L22.4761 28.0554H16.3483C16.1216 27.2433 16 26.3879 16 25.5045ZM16.7354 29.1687C18.1233 32.4762 21.3308 34.838 25.0986 34.9955L26.9918 29.1687H16.7354ZM34.4033 28.8182C33.1422 32.1957 30.0115 34.669 26.2765 34.9726L29.4464 25.2167L34.4033 28.8182Z" fill="white"/>
</svg>
